<?xml version="1.0" standalone="no"?>
<!DOCTYPE svg PUBLIC "-//W3C//DTD SVG 20010904//EN"
 "http://www.w3.org/TR/2001/REC-SVG-20010904/DTD/svg10.dtd">
<svg version="1.0" xmlns="http://www.w3.org/2000/svg"
 width="497.000000pt" height="470.000000pt" viewBox="0 0 497.000000 470.000000"
 preserveAspectRatio="xMidYMid meet">
<metadata>
Created by potrace 1.15, written by Peter Selinger 2001-2017
</metadata>
<g transform="translate(0.000000,470.000000) scale(0.100000,-0.100000)"
fill="#000000" stroke="none">
<path d="M1165 4584 c-179 -33 -349 -103 -502 -205 -99 -66 -275 -242 -340
-339 -157 -235 -223 -459 -223 -758 0 -445 130 -795 439 -1182 116 -145 365
-389 691 -676 627 -552 857 -790 1131 -1174 61 -85 115 -156 119 -158 5 -2 49
57 98 131 250 373 517 657 1123 1197 319 284 597 554 712 693 226 272 364 542
429 840 19 88 22 132 23 327 0 199 -3 235 -22 310 -128 503 -480 856 -978 982
-115 29 -385 36 -515 14 -140 -25 -221 -51 -355 -116 -187 -90 -364 -234 -470
-383 -22 -31 -42 -56 -45 -56 -3 0 -20 22 -38 49 -55 80 -150 178 -245 251
-150 116 -292 186 -478 234 -91 24 -127 28 -289 31 -134 2 -207 -1 -265 -12z
m436 -209 c221 -43 411 -144 570 -306 97 -99 159 -194 239 -363 35 -75 66
-136 70 -136 3 0 33 57 65 128 133 285 297 462 540 582 161 79 298 111 480
111 256 0 487 -80 683 -237 173 -138 300 -322 365 -529 41 -130 50 -217 44
-397 -8 -228 -40 -358 -139 -568 -141 -300 -358 -545 -953 -1075 -556 -496
-807 -754 -1023 -1047 -31 -43 -60 -76 -63 -75 -4 1 -46 52 -94 112 -233 292
-480 538 -975 975 -373 329 -586 536 -705 685 -219 273 -335 520 -380 811 -23
147 -16 414 14 524 92 340 327 611 644 741 192 79 415 102 618 64z"/>
</g>
</svg>
